<svg xmlns="http://www.w3.org/2000/svg" width="1440" height="150" viewBox="0 0 1440 150" preserveAspectRatio="xMidYMid slice" shape-rendering="crispEdges">
  <rect width="1440" height="150" fill="#76c9e9"/>
  <path fill="#a9e2f4" d="M0 0h1440v54h-20V44h-18v-9h-36V22h-17v11h-25v-9h-21v18h-28V29h-19v-9h-28v17h-24V22h-18v-8h-26v19h-21V18h-20v8h-32V11h-19v15h-29V9h-19v14h-29V6h-20v20h-35V16h-19v-9h-27v18h-32V10h-20v12h-35V4h-20v19h-30V9h-24v20h-31V12h-22v21h-28V8h-23v19h-27V14h-24v23h-31V15h-22v14h-30V8h-22v18h-29V10h-22v21h-30V6h-24v22h-33V13h-22v20h-29V8H0z" opacity=".88"/>
  <g fill="#e6f7fb">
    <path d="M34 20h29v-9h14v9h15v13H34zm151 15h20V24h12v11h20v12h-52zm245-18h30V9h16v8h19v14h-65zm181 12h28v-8h18v8h16v12h-62zm256-17h22V5h15v7h18v12h-55zm197 21h28V22h14v11h23v12h-65zm204-18h21V7h16v9h19v12h-56z"/>
    <path d="M119 59h18V51h12v8h17v10h-47zm346-14h24v-9h15v9h18v10h-57zm305 16h25v-8h14v8h22v10h-61zm376-22h24v-9h14v9h20v11h-58z" opacity=".8"/>
  </g>
  <g fill="#acdce7" opacity=".88">
    <path d="M0 98h38V76h34v22h23v31H0zm105 28V69h38V54h27v15h30v57zm113 1V88h27V63h35v25h25v39zm102 0V70h30V48h29v22h27v57zm102 0V82h31V57h35v25h23v45zm112 0V59h35V39h27v20h32v68zm111 0V79h31V55h28v24h35v49zm108 0V63h29V41h33v22h28v64zm107 0V78h34V55h30v23h26v50zm107 0V65h31V43h30v22h31v62zm105 0V81h30V56h34v25h31v46z"/>
  </g>
  <g fill="#c8e9ec">
    <path d="M43 92h18v5H43zm57-20h18v5h-18zm81 20h18v5h-18zm57-20h17v5h-17zm97-1h18v5h-18zm82 20h18v5h-18zm78-19h18v5h-18zm106-18h18v5h-18zm81 35h18v5h-18zm81-21h18v5h-18zm86 0h18v5h-18zm77 21h18v5h-18zm83-20h18v5h-18zm85 22h18v5h-18zm83-17h18v5h-18z"/>
  </g>
  <g fill="#78b7ce">
    <path d="M81 103h8v8h-8zm17 0h8v8h-8zm82-18h8v8h-8zm17 0h8v8h-8zm117 18h8v8h-8zm18 0h8v8h-8zm80-19h8v8h-8zm17 0h8v8h-8zm113-19h8v8h-8zm18 0h8v8h-8zm107 18h8v8h-8zm18 0h8v8h-8zm105-19h8v8h-8zm18 0h8v8h-8zm110 19h8v8h-8zm18 0h8v8h-8zm108-20h8v8h-8zm18 0h8v8h-8zm103 20h8v8h-8zm18 0h8v8h-8z"/>
  </g>
  <g fill="#bde8f1">
    <path d="M17 126V94h18V69h17V47h13V32h15v15h13v22h20v57zm105 0V88h19V59h17V42h11v17h16v29h24v38zm129 0V77h18V57h14V34h13V19h12v15h18v23h15v20h17v49zm126 0V96h22V69h18V50h17V35h13v15h16v19h19v27h20v30zm147 0V74h24V47h18V30h13V15h14v15h15v17h23v27h18v52zm149 0V91h19V66h19V46h15V31h14v15h17v20h19v25h24v35zm132 0V82h22V54h17V38h15V23h14v15h16v16h19v28h18v44zm131 0V96h22V71h17V51h18V37h14v14h16v20h20v25h19v30zm127 0V83h21V59h17V40h14V24h15v16h17v19h21v24h20v43zm131 0V97h21V74h18V53h14V38h17v15h14v21h22v23h19v29z"/>
  </g>
  <g fill="#70bad0" opacity=".8">
    <path d="M42 58h7v8h-7zm18 0h7v8h-7zm124 12h7v8h-7zm18 0h7v8h-7zm225 7h7v8h-7zm18 0h7v8h-7zm78-35h7v8h-7zm18 0h7v8h-7zm161 30h7v8h-7zm18 0h7v8h-7zm155-32h7v8h-7zm18 0h7v8h-7zm143 37h7v8h-7zm18 0h7v8h-7zm156-32h7v8h-7zm18 0h7v8h-7z"/>
  </g>
  <g fill="#d9e5c4">
    <path d="M889 109h12V48h10V34h5V17h4v17h5v14h7v61h12v8h-55z"/>
    <path d="M877 117h80v7h-80zM897 39h38v6h-38z"/>
  </g>
  <g fill="#80a94e">
    <path d="M0 120h20v-12h14V96h18v12h14v-8h18v12h19v-8h15v-9h19v11h18v-8h17v-9h16v10h17v11h22v-9h17v-9h17v10h18v10h20v-8h16v-10h19v11h14v-8h19v11h17v-8h19v-11h17v10h17v10h22v-11h18v-8h20v9h18v12h17v-10h18v-10h16v11h20v10h21v-9h17v-9h18v10h16v9h19v-13h17v-7h18v10h21v9h18v-9h19v-11h17v12h19v9h19v-10h18v-9h18v12h22v8h21v-12h18v-8h18v10h16v10h21v-10h17v-12h20v12h18v10h18v-9h18v-8h17v11h21v10h23v-12h20v-9h19v11h20v10h21v-10h17v-12h20v12h18v10h24v29H0z"/>
  </g>
  <g fill="#a6c85d">
    <path d="M26 120h16v-14h8v14h11v9H26zm105 0h17v-12h8v12h10v9h-35zm170 0h16v-14h9v14h12v9h-37zm150 0h17v-13h8v13h11v9h-36zm171 0h17v-14h9v14h12v9h-38zm155 0h16v-12h9v12h12v9h-37zm166 0h16v-14h8v14h13v9h-37zm160 0h18v-13h8v13h11v9h-37z"/>
  </g>
  <path fill="#2e8d66" d="M0 139h1440v11H0z"/>
</svg>
